<svg width="25" height="24" viewBox="0 0 25 24" fill="none" xmlns="http://www.w3.org/2000/svg">
<path fill-rule="evenodd" clip-rule="evenodd" d="M13.75 10.7143H17.5V13.0952H13.75V16.6667H11.25V13.0952H7.5V10.7143H11.25V7.14286H13.75V10.7143ZM12.5 21.4286C6.98625 21.4286 2.50001 17.156 2.50001 11.9048C2.50001 6.65357 6.98625 2.38095 12.5 2.38095C18.0138 2.38095 22.5 6.65357 22.5 11.9048C22.5 17.156 18.0138 21.4286 12.5 21.4286ZM12.5 0C5.59625 0 0 5.32976 0 11.9048C0 18.4798 5.59625 23.8095 12.5 23.8095C19.4037 23.8095 25 18.4798 25 11.9048C25 5.32976 19.4037 0 12.5 0Z" fill="#ED821D"/>
</svg>
