<svg width="25" height="22" viewBox="0 0 25 22" fill="none" xmlns="http://www.w3.org/2000/svg">
<path d="M2.07812 12.611L0.0263405 3.90565C-0.121794 3.27711 0.37365 2.67857 1.0421 2.67857H18.0899L18.4878 0.803153C18.5869 0.3357 19.0135 0 19.5083 0H23.9583C24.5336 0 25 0.449707 25 1.00446V1.67411C25 2.22886 24.5336 2.67857 23.9583 2.67857H20.9252L17.8763 17.0522C18.6057 17.4568 19.0972 18.2152 19.0972 19.0848C19.0972 20.3792 18.009 21.4286 16.6667 21.4286C15.3243 21.4286 14.2361 20.3792 14.2361 19.0848C14.2361 18.4288 14.5159 17.8361 14.9663 17.4107H5.86705C6.3174 17.8361 6.59722 18.4288 6.59722 19.0848C6.59722 20.3792 5.50902 21.4286 4.16666 21.4286C2.8243 21.4286 1.73611 20.3792 1.73611 19.0848C1.73611 18.1569 2.29548 17.355 3.10672 16.9752L2.86727 15.9592C2.71914 15.3307 3.21458 14.7321 3.88302 14.7321H15.5331L15.8172 13.3929H3.09388C2.6075 13.3929 2.18589 13.0683 2.07812 12.611Z" fill="#392F5A"/>
</svg>
