<svg width="30" height="25" viewBox="0 0 30 25" fill="none" xmlns="http://www.w3.org/2000/svg">
<path d="M28.9286 20.6897H1.07143C0.787268 20.6897 0.514746 20.7805 0.313814 20.9422C0.112882 21.1038 0 21.3231 0 21.5517L0 23.2759C0 23.5045 0.112882 23.7238 0.313814 23.8854C0.514746 24.0471 0.787268 24.1379 1.07143 24.1379H28.9286C29.2127 24.1379 29.4853 24.0471 29.6862 23.8854C29.8871 23.7238 30 23.5045 30 23.2759V21.5517C30 21.3231 29.8871 21.1038 29.6862 20.9422C29.4853 20.7805 29.2127 20.6897 28.9286 20.6897ZM28.9286 13.7931H1.07143C0.787268 13.7931 0.514746 13.8839 0.313814 14.0456C0.112882 14.2073 0 14.4265 0 14.6552L0 16.3793C0 16.6079 0.112882 16.8272 0.313814 16.9889C0.514746 17.1506 0.787268 17.2414 1.07143 17.2414H28.9286C29.2127 17.2414 29.4853 17.1506 29.6862 16.9889C29.8871 16.8272 30 16.6079 30 16.3793V14.6552C30 14.4265 29.8871 14.2073 29.6862 14.0456C29.4853 13.8839 29.2127 13.7931 28.9286 13.7931ZM28.9286 6.89655H1.07143C0.787268 6.89655 0.514746 6.98738 0.313814 7.14905C0.112882 7.31072 0 7.52999 0 7.75862L0 9.48276C0 9.71139 0.112882 9.93067 0.313814 10.0923C0.514746 10.254 0.787268 10.3448 1.07143 10.3448H28.9286C29.2127 10.3448 29.4853 10.254 29.6862 10.0923C29.8871 9.93067 30 9.71139 30 9.48276V7.75862C30 7.52999 29.8871 7.31072 29.6862 7.14905C29.4853 6.98738 29.2127 6.89655 28.9286 6.89655ZM28.9286 0H1.07143C0.787268 0 0.514746 0.0908248 0.313814 0.252494C0.112882 0.414163 0 0.633434 0 0.862069L0 2.58621C0 2.81484 0.112882 3.03411 0.313814 3.19578C0.514746 3.35745 0.787268 3.44828 1.07143 3.44828H28.9286C29.2127 3.44828 29.4853 3.35745 29.6862 3.19578C29.8871 3.03411 30 2.81484 30 2.58621V0.862069C30 0.633434 29.8871 0.414163 29.6862 0.252494C29.4853 0.0908248 29.2127 0 28.9286 0Z" fill="#392F5A"/>
</svg>
