<svg width="30" height="30" viewBox="0 0 30 30" fill="none" xmlns="http://www.w3.org/2000/svg">
<g clip-path="url(#clip0_80_10)">
<path d="M29.1861 9.04318V4.88731H26.6648C25.7872 2.05951 23.1467 0 20.0341 0C16.2068 0 13.0931 3.11372 13.0931 6.94086C13.0931 9.44103 14.4223 11.6362 16.4107 12.8583C15.7515 12.9861 15.0714 13.0533 14.3781 13.0533C10.9427 13.0533 7.82274 11.4299 6.03211 8.71057L5.38227 7.72383L4.54126 8.55348C2.13751 10.925 0.813721 14.0298 0.813721 17.2965C0.813721 24.3011 6.89875 29.9999 14.3781 29.9999C21.8575 29.9999 27.9426 24.3011 27.9426 17.2965C27.9426 14.91 27.2332 12.6114 25.9153 10.6206C26.2222 10.132 26.4703 9.60325 26.6487 9.04318H29.1861ZM21.0592 6.50353C20.3196 6.50353 19.72 5.90397 19.72 5.16436C19.72 4.42476 20.3196 3.8252 21.0592 3.8252C21.7988 3.8252 22.3984 4.42476 22.3984 5.16436C22.3984 5.90397 21.7988 6.50353 21.0592 6.50353Z" fill="#392F5A"/>
</g>
<defs>
<clipPath id="clip0_80_10">
<rect width="30" height="30" fill="white"/>
</clipPath>
</defs>
</svg>
